<?xml version="1.0" encoding="UTF-8"?>
<!DOCTYPE svg PUBLIC "-//W3C//DTD SVG 1.1//EN" "http://www.w3.org/Graphics/SVG/1.1/DTD/svg11.dtd">
<svg xmlns="http://www.w3.org/2000/svg" version="1.1" width="48px" height="48px" style="shape-rendering:geometricPrecision; text-rendering:geometricPrecision; image-rendering:optimizeQuality; fill-rule:evenodd; clip-rule:evenodd" xmlns:xlink="http://www.w3.org/1999/xlink">
<g><path style="opacity:0.938" fill="#4fe6fe" d="M 35.5,16.5 C 34.1266,16.6567 32.7932,16.49 31.5,16C 30.8366,14.4815 29.8366,13.3149 28.5,12.5C 28.317,10.0637 28.9837,7.89699 30.5,6C 40.265,3.57817 43.265,6.9115 39.5,16C 38.2068,16.49 36.8734,16.6567 35.5,16.5 Z"/></g>
<g><path style="opacity:0.973" fill="#4a51c1" d="M 18.5,10.5 C 22.5,9.83333 24.1667,11.5 23.5,15.5C 21.5,15.5 19.5,15.5 17.5,15.5C 17.366,13.7085 17.6993,12.0418 18.5,10.5 Z"/></g>
<g><path style="opacity:0.502" fill="#4952ba" d="M 8.5,11.5 C 9.83333,11.5 11.1667,11.5 12.5,11.5C 12.5,12.5 12.5,13.5 12.5,14.5C 11.1667,14.5 9.83333,14.5 8.5,14.5C 8.5,13.5 8.5,12.5 8.5,11.5 Z"/></g>
<g><path style="opacity:0.951" fill="#0765b5" d="M 28.5,12.5 C 29.8366,13.3149 30.8366,14.4815 31.5,16C 32.7932,16.49 34.1266,16.6567 35.5,16.5C 35.496,21.9885 32.8293,23.8219 27.5,22C 24.7651,18.5083 25.0985,15.3417 28.5,12.5 Z"/></g>
<g><path style="opacity:0.946" fill="#0264b5" d="M 9.5,17.5 C 14.1225,16.4082 15.9558,18.0748 15,22.5C 9.42048,24.7516 7.58715,23.0849 9.5,17.5 Z"/></g>
<g><path style="opacity:0.973" fill="#4a51c1" d="M 36.5,23.5 C 40.5,22.8333 42.1667,24.5 41.5,28.5C 39.5,28.5 37.5,28.5 35.5,28.5C 35.366,26.7085 35.6993,25.0418 36.5,23.5 Z"/></g>
<g><path style="opacity:0.916" fill="#4fe5fe" d="M 19.5,36.5 C 16.8333,36.5 14.1667,36.5 11.5,36.5C 10.7281,35.3065 9.72813,34.3065 8.5,33.5C 7.38389,24.9849 11.0506,22.3182 19.5,25.5C 22.005,29.1557 22.005,32.8223 19.5,36.5 Z"/></g>
<g><path style="opacity:0.915" fill="#4b53bb" d="M 22.5,27.5 C 24.1667,27.5 25.8333,27.5 27.5,27.5C 27.5,28.8333 27.5,30.1667 27.5,31.5C 25.8333,31.5 24.1667,31.5 22.5,31.5C 22.5,30.1667 22.5,28.8333 22.5,27.5 Z"/></g>
<g><path style="opacity:1" fill="#4b53be" d="M 31.5,29.5 C 34.0838,30.0483 35.0838,31.715 34.5,34.5C 33.1667,34.5 31.8333,34.5 30.5,34.5C 30.366,32.7085 30.6993,31.0418 31.5,29.5 Z"/></g>
<g><path style="opacity:0.967" fill="#4a53be" d="M 8.5,33.5 C 9.72813,34.3065 10.7281,35.3065 11.5,36.5C 10.0101,38.2798 8.01011,38.9465 5.5,38.5C 4.91618,35.715 5.91618,34.0483 8.5,33.5 Z"/></g>
<g><path style="opacity:0.946" fill="#0264b5" d="M 19.5,36.5 C 24.2604,34.2372 26.427,35.5705 26,40.5C 21.5519,42.6609 19.3852,41.3276 19.5,36.5 Z"/></g>
</svg>
